<svg width="24" height="24" viewBox="0 0 24 24" fill="none" xmlns="http://www.w3.org/2000/svg">
<path d="M16.5599 8.94L7.61993 0L6.20993 1.41L8.58993 3.79L3.43993 8.94C3.29964 9.07859 3.18826 9.24364 3.11224 9.4256C3.03622 9.60756 2.99707 9.8028 2.99707 10C2.99707 10.1972 3.03622 10.3924 3.11224 10.5744C3.18826 10.7564 3.29964 10.9214 3.43993 11.06L8.93993 16.56C9.22993 16.85 9.61993 17 9.99993 17C10.3799 17 10.7699 16.85 11.0599 16.56L16.5599 11.06C17.1499 10.48 17.1499 9.53 16.5599 8.94V8.94ZM5.20993 10L9.99993 5.21L14.7899 10H5.20993ZM18.9999 11.5C18.9999 11.5 16.9999 13.67 16.9999 15C16.9999 16.1 17.8999 17 18.9999 17C20.0999 17 20.9999 16.1 20.9999 15C20.9999 13.67 18.9999 11.5 18.9999 11.5Z" fill="black"/>
<path d="M0 20H24V24H0V20Z" fill="black" fill-opacity="0.3"/>
</svg>
