<svg width="24" height="24" viewBox="0 0 24 24" fill="none" xmlns="http://www.w3.org/2000/svg">
<path d="M7.20005 8.39998V3.59998H6.37205L4.82405 4.83598L5.30405 5.44798L5.85605 5.00398C5.92805 4.94398 6.04805 4.83598 6.21605 4.66798L6.19205 5.17198V8.39998H7.20005ZM9.60005 5.99998H20.4V7.19998H9.60005V5.99998ZM8.12405 14.34V13.5H6.06005V13.452L6.67205 12.876C7.06805 12.504 7.35605 12.228 7.51205 12.024C7.68005 11.82 7.80005 11.628 7.87205 11.436C7.95605 11.244 7.99205 11.04 7.99205 10.824C7.99205 10.572 7.93205 10.344 7.80005 10.152C7.68005 9.95998 7.50005 9.81598 7.27205 9.70798C7.04405 9.59998 6.78005 9.53998 6.49205 9.53998C6.26405 9.53998 6.06005 9.56398 5.88005 9.61198C5.70005 9.64798 5.53205 9.71998 5.37605 9.79198C5.23205 9.87598 5.02805 10.02 4.80005 10.212L5.34005 10.86C5.53205 10.704 5.71205 10.584 5.88005 10.5C6.06005 10.416 6.24005 10.38 6.42005 10.38C6.58805 10.38 6.73205 10.416 6.84005 10.512C6.94805 10.608 6.99605 10.752 6.99605 10.944C6.99605 11.064 6.97205 11.184 6.92405 11.304C6.87605 11.424 6.80405 11.556 6.69605 11.7C6.58805 11.832 6.34805 12.084 6.00005 12.444L4.81205 13.644V14.34H8.12405V14.34ZM9.60005 12H20.4V13.2H9.60005V12ZM8.05205 16.74C8.05205 16.38 7.90805 16.092 7.60805 15.888C7.32005 15.684 6.91205 15.576 6.40805 15.576C5.78405 15.576 5.25605 15.732 4.81205 16.056L5.29205 16.776C5.49605 16.644 5.67605 16.548 5.84405 16.5C6.01205 16.44 6.16805 16.416 6.33605 16.416C6.79205 16.416 7.03205 16.596 7.03205 16.968C7.03205 17.208 6.94805 17.388 6.76805 17.484C6.58805 17.58 6.31205 17.628 5.92805 17.628H5.55605V18.42H5.92805C6.33605 18.42 6.63605 18.468 6.82805 18.564C7.00805 18.66 7.10405 18.828 7.10405 19.056C7.10405 19.32 7.02005 19.5 6.86405 19.62C6.69605 19.74 6.44405 19.8 6.10805 19.8C5.88005 19.8 5.65205 19.764 5.42405 19.704C5.19605 19.644 4.99205 19.56 4.80005 19.464V20.352C5.20805 20.532 5.68805 20.616 6.21605 20.616C6.85205 20.616 7.34405 20.484 7.68005 20.22C8.02805 19.956 8.19605 19.596 8.19605 19.116C8.19605 18.792 8.08805 18.54 7.88405 18.348C7.68005 18.156 7.38005 18.036 6.99605 17.988V17.964C7.32005 17.892 7.58405 17.736 7.77605 17.52C7.95605 17.304 8.05205 17.052 8.05205 16.74V16.74ZM9.60005 18H20.4V19.2H9.60005V18Z" fill="black"/>
</svg>
