<svg width="24" height="24" viewBox="0 0 24 24" fill="none" xmlns="http://www.w3.org/2000/svg">
<path d="M6.60005 8.39999C5.60405 8.39999 4.80005 7.59599 4.80005 6.59999C4.80005 5.61599 5.60405 4.79999 6.60005 4.79999C7.58405 4.79999 8.40005 5.61599 8.40005 6.59999C8.40005 7.59599 7.58405 8.39999 6.60005 8.39999ZM9.60005 5.99999H20.4V7.19999H9.60005V5.99999ZM6.60005 14.4C5.60405 14.4 4.80005 13.596 4.80005 12.6C4.80005 11.616 5.60405 10.8 6.60005 10.8C7.58405 10.8 8.40005 11.616 8.40005 12.6C8.40005 13.596 7.58405 14.4 6.60005 14.4ZM9.60005 12H20.4V13.2H9.60005V12ZM6.60005 20.4C5.60405 20.4 4.80005 19.596 4.80005 18.6C4.80005 17.616 5.60405 16.8 6.60005 16.8C7.58405 16.8 8.40005 17.616 8.40005 18.6C8.40005 19.596 7.58405 20.4 6.60005 20.4ZM9.60005 18H20.4V19.2H9.60005V18Z" fill="black"/>
</svg>
