<svg width="24" height="24" viewBox="0 0 24 24" fill="none" xmlns="http://www.w3.org/2000/svg">
<path d="M16.543 8.02799C16.52 9.53099 16.02 11.566 13.676 12.355C14.41 10.609 14.522 8.93799 14.002 7.37599C13.307 5.27899 10.988 3.64099 9.445 2.74899C8.918 2.44299 8.242 2.82299 8.252 3.43199C8.272 4.54399 7.934 6.16899 6.293 7.80999C4.107 9.99399 3 12.251 3 14.517C3 17.362 5 21 9 21C4.959 16.959 8 13.517 8 13.517C8.846 19.431 12.988 21 15 21C16.711 21 20 19.75 20 14.552C20 11.419 18.668 9.04099 17.615 7.65299C17.268 7.19499 16.551 7.45499 16.543 8.02799Z" fill="black"/>
</svg>
