<svg width="24" height="24" viewBox="0 0 24 24" fill="none" xmlns="http://www.w3.org/2000/svg">
<path d="M9.64 7.64C9.87 7.14 10 6.59 10 6C10 3.79 8.21 2 6 2C3.79 2 2 3.79 2 6C2 8.21 3.79 10 6 10C6.59 10 7.14 9.87 7.64 9.64L10 12L7.64 14.36C7.14 14.13 6.59 14 6 14C3.79 14 2 15.79 2 18C2 20.21 3.79 22 6 22C8.21 22 10 20.21 10 18C10 17.41 9.87 16.86 9.64 16.36L12 14L19 21H21C21.2652 21 21.5196 20.8946 21.7071 20.7071C21.8946 20.5196 22 20.2652 22 20L9.64 7.64ZM6 8C5.73366 8.00602 5.4688 7.95877 5.22098 7.86103C4.97315 7.76328 4.74735 7.61701 4.55683 7.4308C4.36631 7.24458 4.21491 7.02218 4.11153 6.77666C4.00814 6.53113 3.95485 6.26742 3.95478 6.00101C3.95472 5.7346 4.00788 5.47087 4.11114 5.22529C4.2144 4.97971 4.36569 4.75723 4.55611 4.57093C4.74654 4.38462 4.97227 4.23823 5.22005 4.14036C5.46782 4.04249 5.73266 3.99511 5.999 4.001C6.52156 4.01256 7.01883 4.22822 7.38437 4.60184C7.74991 4.97545 7.95465 5.47732 7.95478 6.00001C7.95492 6.5227 7.75042 7.02467 7.38507 7.39847C7.01972 7.77227 6.52256 7.98818 6 8ZM6 20C5.73366 20.006 5.4688 19.9588 5.22098 19.861C4.97315 19.7633 4.74735 19.617 4.55683 19.4308C4.36631 19.2446 4.21491 19.0222 4.11153 18.7767C4.00814 18.5311 3.95485 18.2674 3.95478 18.001C3.95472 17.7346 4.00788 17.4709 4.11114 17.2253C4.2144 16.9797 4.36569 16.7572 4.55611 16.5709C4.74654 16.3846 4.97227 16.2382 5.22005 16.1404C5.46782 16.0425 5.73266 15.9951 5.999 16.001C6.52156 16.0126 7.01883 16.2282 7.38437 16.6018C7.74991 16.9755 7.95465 17.4773 7.95478 18C7.95492 18.5227 7.75042 19.0247 7.38507 19.3985C7.01972 19.7723 6.52256 19.9882 6 20V20ZM12 12.5C11.72 12.5 11.5 12.28 11.5 12C11.5 11.72 11.72 11.5 12 11.5C12.28 11.5 12.5 11.72 12.5 12C12.5 12.28 12.28 12.5 12 12.5ZM19 3L13 9L15 11L22 4C22 3.73478 21.8946 3.48043 21.7071 3.29289C21.5196 3.10536 21.2652 3 21 3H19Z" fill="black"/>
</svg>
