<svg width="24" height="24" viewBox="0 0 24 24" fill="none" xmlns="http://www.w3.org/2000/svg">
<g clip-path="url(#clip0)">
<path d="M9.00004 -2.99083e-06V2.25C10.6747 2.24668 12.3335 2.57487 13.8807 3.21565C15.428 3.85643 16.8331 4.79712 18.015 5.9835C19.2006 7.16606 20.1408 8.57128 20.7815 10.1184C21.4222 11.6655 21.7509 13.324 21.7485 14.9985H23.9985C23.9985 6.714 17.283 -0.00150299 8.99854 -0.00150299L9.00004 -2.99083e-06Z" fill="black"/>
<path d="M9 4.5V6.75C11.2035 6.75 13.275 7.608 14.8335 9.1665C16.392 10.725 17.25 12.7965 17.25 15H19.5C19.5 12.2152 18.3938 9.54451 16.4246 7.57538C14.4555 5.60625 11.7848 4.5 9 4.5Z" fill="black"/>
<path d="M11.25 9L9.75 10.5L4.5 12L0 21.75L0.594 22.344L6.051 16.887C5.96551 16.568 5.98765 16.2298 6.114 15.9247C6.24035 15.6196 6.46383 15.3648 6.7498 15.1996C7.03576 15.0345 7.36822 14.9684 7.69561 15.0115C8.023 15.0546 8.32702 15.2045 8.56052 15.438C8.79401 15.6715 8.94393 15.9755 8.98703 16.3029C9.03012 16.6303 8.96398 16.9627 8.79886 17.2487C8.63374 17.5347 8.37887 17.7582 8.07379 17.8845C7.7687 18.0108 7.43045 18.033 7.1115 17.9475L1.6545 23.4045L2.2485 23.9985L11.9985 19.4985L13.4985 14.2485L14.9985 12.7485L11.2485 8.9985L11.25 9Z" fill="black"/>
</g>
<defs>
<clipPath id="clip0">
<path d="M0 0H24V24H0V0Z" fill="white"/>
</clipPath>
</defs>
</svg>
