<svg width="24" height="24" viewBox="0 0 24 24" fill="none" xmlns="http://www.w3.org/2000/svg">
<path d="M11.9995 2.00006C6.49951 2.00006 1.99951 6.50005 1.99951 12C1.99951 17.5 6.49951 22 11.9995 22C17.4995 22 21.9995 17.5 21.9995 12C21.9995 6.50005 17.4995 2.00006 11.9995 2.00006ZM15.5495 15.8L11.4695 13.29C11.1695 13.11 10.9895 12.79 10.9895 12.44V7.75005C10.9995 7.34005 11.3395 7.00005 11.7495 7.00005C12.1595 7.00005 12.4995 7.34005 12.4995 7.75005V12.2L16.3395 14.51C16.6995 14.73 16.8195 15.2 16.5995 15.56C16.3795 15.91 15.9095 16.02 15.5495 15.8Z" fill="black"/>
</svg>
